# xmcd
#
# Track frame offsets:
#	150
#	22555
#	46395
#	66125
#	83855
#	101212
#	120452
#	136047
#	158919
#	178154
#	206907
#
# Disc length: 3089 seconds
#
# Revision: 0
# Processed by: cddbd v1.5PL3 Copyright (c) Steve Scherf et al.
# Submitted via: dBpowerAMP V4.0
#
DISCID=8e0c0f0b
DTITLE=Denise LaSalle - I'm Still The Queen
DYEAR=2003
DGENRE=Blues
TTITLE0=i'm still the queen
TTITLE1=dirty, freaky man
TTITLE2=you should have kept it in the bedroom
TTITLE3=what kind of man is this
TTITLE4=funky blues kind of mood
TTITLE5=cover it up
TTITLE6=who needs you
TTITLE7=in a midnight mood in the middle of the day
TTITLE8=unlovable habits
TTITLE9=there's no separation
TTITLE10=bonus track
EXTD=
EXTT0=
EXTT1=
EXTT2=
EXTT3=
EXTT4=
EXTT5=
EXTT6=
EXTT7=
EXTT8=
EXTT9=
EXTT10=
PLAYORDER=
